<?xml version="1.0" standalone="no"?>
<!DOCTYPE svg PUBLIC "-//W3C//DTD SVG 20010904//EN"
 "http://www.w3.org/TR/2001/REC-SVG-20010904/DTD/svg10.dtd">
<svg version="1.0" xmlns="http://www.w3.org/2000/svg"
 width="1067.000000pt" height="1067.000000pt" viewBox="0 0 1067.000000 1067.000000"
 preserveAspectRatio="xMidYMid meet">
<metadata>
Created by potrace 1.11, written by Peter Selinger 2001-2013
</metadata>
<g transform="translate(0.000000,1067.000000) scale(0.100000,-0.100000)"
fill="#000000" stroke="none">
<path d="M0 5335 l0 -5335 5333 2 5332 3 3 5333 2 5332 -5335 0 -5335 0 0
-5335z m7393 3481 l2037 -1448 0 -2071 -1 -2072 -2039 -1417 c-1122 -780
-2044 -1419 -2049 -1420 -5 -2 -930 636 -2055 1417 l-2046 1419 2 2075 3 2075
2040 1448 c1132 803 2047 1446 2056 1444 8 -2 932 -654 2052 -1450z"/>
<path d="M3380 8704 c-624 -443 -1136 -809 -1138 -813 -1 -5 173 -132 387
-282 215 -151 391 -277 391 -281 0 -3 -176 -131 -390 -283 -215 -153 -390
-279 -388 -280 2 -2 515 -364 1141 -804 678 -477 1143 -799 1150 -794 7 4 185
129 397 278 212 149 391 275 397 279 8 4 163 -98 419 -279 l405 -285 1117 786
c614 433 1125 795 1135 804 18 16 1 30 -372 295 -215 153 -391 281 -391 284 1
3 174 128 386 276 212 149 389 275 394 280 8 10 -2242 1617 -2271 1622 -8 2
-193 -125 -413 -281 l-398 -283 -399 283 c-220 156 -405 284 -412 284 -7 0
-523 -363 -1147 -806z"/>
<path d="M1382 5245 l3 -1937 1850 -1285 c1018 -706 1889 -1311 1938 -1344
l87 -60 0 1918 0 1918 -1932 1360 c-1062 748 -1935 1362 -1940 1363 -4 2 -7
-868 -6 -1933z"/>
<path d="M7356 5825 c-1056 -745 -1925 -1360 -1933 -1367 -11 -11 -13 -339
-11 -1926 l3 -1913 1932 1343 1932 1343 1 1938 c0 1065 -1 1937 -2 1937 -2 -1
-867 -610 -1922 -1355z"/>
</g>
</svg>
